<svg width="790" height="129" viewBox="0 0 790 129" fill="none" xmlns="http://www.w3.org/2000/svg">
<rect x="67" y="23" width="83" height="67" transform="rotate(90 67 23)" fill="#FFBDBD"/>
<circle cx="67.5" cy="56.5" r="33.5" fill="#4C40F7"/>
<path d="M166.544 73.296V96H155.192V35.8H178.756C181.852 35.8 184.547 36.316 186.84 37.348C189.133 38.3227 191.025 39.6413 192.516 41.304C194.064 42.9093 195.211 44.7727 195.956 46.894C196.759 48.958 197.16 51.0793 197.16 53.258V55.322C197.16 57.558 196.759 59.7653 195.956 61.944C195.211 64.0653 194.064 65.986 192.516 67.706C191.025 69.3687 189.133 70.716 186.84 71.748C184.547 72.78 181.852 73.296 178.756 73.296H166.544ZM166.544 62.46H177.638C180.161 62.46 182.139 61.772 183.572 60.396C185.063 59.02 185.808 57.2427 185.808 55.064V54.032C185.808 51.8533 185.063 50.076 183.572 48.7C182.139 47.324 180.161 46.636 177.638 46.636H166.544V62.46ZM278.847 96H267.495V77.94C267.495 76.564 267.122 75.446 266.377 74.586C265.689 73.726 264.514 73.296 262.851 73.296H249.779V96H238.427V35.8H261.475C264.571 35.8 267.294 36.23 269.645 37.09C271.996 37.95 273.945 39.154 275.493 40.702C277.098 42.1927 278.302 43.9413 279.105 45.948C279.965 47.9547 280.395 50.1047 280.395 52.398V54.462C280.395 56.9273 279.736 59.2493 278.417 61.428C277.098 63.5493 275.063 65.1833 272.311 66.33V67.878C274.318 68.1073 275.894 68.8813 277.041 70.2C278.245 71.5187 278.847 73.1813 278.847 75.188V96ZM249.779 62.46H260.615C263.367 62.46 265.46 61.8293 266.893 60.568C268.326 59.2493 269.043 57.4147 269.043 55.064V54.032C269.043 52.0253 268.326 50.3053 266.893 48.872C265.46 47.3813 263.367 46.636 260.615 46.636H249.779V62.46ZM319.426 59.192C319.426 51.3947 321.376 45.346 325.274 41.046C329.23 36.746 334.677 34.596 341.614 34.596C348.552 34.596 353.97 36.746 357.868 41.046C361.824 45.346 363.802 51.3947 363.802 59.192V72.608C363.802 80.6347 361.824 86.7407 357.868 90.926C353.97 95.1113 348.552 97.204 341.614 97.204C334.677 97.204 329.23 95.1113 325.274 90.926C321.376 86.7407 319.426 80.6347 319.426 72.608V59.192ZM341.614 86.884C343.678 86.884 345.398 86.5687 346.774 85.938C348.15 85.25 349.268 84.304 350.128 83.1C350.988 81.896 351.59 80.4627 351.934 78.8C352.278 77.1373 352.45 75.3027 352.45 73.296V58.504C352.45 56.612 352.25 54.8347 351.848 53.172C351.447 51.5093 350.816 50.076 349.956 48.872C349.096 47.668 347.978 46.722 346.602 46.034C345.226 45.2887 343.564 44.916 341.614 44.916C339.665 44.916 338.002 45.2887 336.626 46.034C335.25 46.722 334.132 47.668 333.272 48.872C332.412 50.076 331.782 51.5093 331.38 53.172C330.979 54.8347 330.778 56.612 330.778 58.504V73.296C330.778 75.3027 330.95 77.1373 331.294 78.8C331.638 80.4627 332.24 81.896 333.1 83.1C333.96 84.304 335.078 85.25 336.454 85.938C337.83 86.5687 339.55 86.884 341.614 86.884ZM406.015 35.8H444.543V46.636H417.367V60.396H444.027V71.232H417.367V96H406.015V35.8ZM485.724 59.192C485.724 51.3947 487.674 45.346 491.572 41.046C495.528 36.746 500.975 34.596 507.912 34.596C514.85 34.596 520.268 36.746 524.166 41.046C528.122 45.346 530.1 51.3947 530.1 59.192V72.608C530.1 80.6347 528.122 86.7407 524.166 90.926C520.268 95.1113 514.85 97.204 507.912 97.204C500.975 97.204 495.528 95.1113 491.572 90.926C487.674 86.7407 485.724 80.6347 485.724 72.608V59.192ZM507.912 86.884C509.976 86.884 511.696 86.5687 513.072 85.938C514.448 85.25 515.566 84.304 516.426 83.1C517.286 81.896 517.888 80.4627 518.232 78.8C518.576 77.1373 518.748 75.3027 518.748 73.296V58.504C518.748 56.612 518.548 54.8347 518.146 53.172C517.745 51.5093 517.114 50.076 516.254 48.872C515.394 47.668 514.276 46.722 512.9 46.034C511.524 45.2887 509.862 44.916 507.912 44.916C505.963 44.916 504.3 45.2887 502.924 46.034C501.548 46.722 500.43 47.668 499.57 48.872C498.71 50.076 498.08 51.5093 497.678 53.172C497.277 54.8347 497.076 56.612 497.076 58.504V73.296C497.076 75.3027 497.248 77.1373 497.592 78.8C497.936 80.4627 498.538 81.896 499.398 83.1C500.258 84.304 501.376 85.25 502.752 85.938C504.128 86.5687 505.848 86.884 507.912 86.884ZM571.798 35.8H583.15V85.164H610.498V96H571.798V35.8ZM654.087 35.8H694.335V46.636H679.887V85.164H694.335V96H654.087V85.164H668.535V46.636H654.087V35.8ZM735.172 59.192C735.172 51.3947 737.121 45.346 741.02 41.046C744.976 36.746 750.422 34.596 757.36 34.596C764.297 34.596 769.715 36.746 773.614 41.046C777.57 45.346 779.548 51.3947 779.548 59.192V72.608C779.548 80.6347 777.57 86.7407 773.614 90.926C769.715 95.1113 764.297 97.204 757.36 97.204C750.422 97.204 744.976 95.1113 741.02 90.926C737.121 86.7407 735.172 80.6347 735.172 72.608V59.192ZM757.36 86.884C759.424 86.884 761.144 86.5687 762.52 85.938C763.896 85.25 765.014 84.304 765.874 83.1C766.734 81.896 767.336 80.4627 767.68 78.8C768.024 77.1373 768.196 75.3027 768.196 73.296V58.504C768.196 56.612 767.995 54.8347 767.594 53.172C767.192 51.5093 766.562 50.076 765.702 48.872C764.842 47.668 763.724 46.722 762.348 46.034C760.972 45.2887 759.309 44.916 757.36 44.916C755.41 44.916 753.748 45.2887 752.372 46.034C750.996 46.722 749.878 47.668 749.018 48.872C748.158 50.076 747.527 51.5093 747.126 53.172C746.724 54.8347 746.524 56.612 746.524 58.504V73.296C746.524 75.3027 746.696 77.1373 747.04 78.8C747.384 80.4627 747.986 81.896 748.846 83.1C749.706 84.304 750.824 85.25 752.2 85.938C753.576 86.5687 755.296 86.884 757.36 86.884Z" fill="#111029"/>
</svg>
